<?xml version="1.0" standalone="no"?>
<!DOCTYPE svg PUBLIC "-//W3C//DTD SVG 20010904//EN"
 "http://www.w3.org/TR/2001/REC-SVG-20010904/DTD/svg10.dtd">
<svg version="1.0" xmlns="http://www.w3.org/2000/svg"
 viewBox="0 0 1084.000000 534.000000"
 preserveAspectRatio="xMidYMid meet">
<g transform="translate(0.000000,534.000000) scale(0.100000,-0.100000)"
fill="#3b4556" stroke="none">
<path d="M4354 5266 l-572 -71 -140 -174 -141 -174 30 -41 c64 -88 47 -82 145
-52 l86 27 77 -58 76 -58 40 -202 40 -202 93 -144 c103 -160 99 -157 211 -157
l56 0 44 108 43 109 186 56 c102 32 186 58 188 60 1 1 54 83 118 182 68 104
116 190 117 205 0 14 6 85 13 159 14 150 3 128 119 226 l47 41 -141 114 c-77
63 -146 116 -152 116 -7 1 -269 -30 -583 -70z"/>
<path d="M2568 5008 c-333 -128 -609 -236 -613 -240 -8 -7 -55 -186 -55 -208
0 -9 50 -51 111 -94 60 -43 109 -80 107 -81 -2 -2 -41 1 -88 6 -47 6 -166 18
-265 29 -99 10 -338 35 -531 55 l-351 37 -126 -67 c-70 -37 -127 -70 -127 -73
1 -4 15 -102 33 -219 l32 -211 77 -60 77 -59 -99 -98 c-55 -55 -98 -101 -96
-103 2 -2 135 62 295 142 160 80 301 146 313 146 13 0 74 -7 136 -17 l113 -16
95 -103 c95 -103 95 -103 59 -97 -19 3 -35 3 -35 -1 0 -4 13 -33 30 -65 l29
-59 45 13 44 14 67 -96 66 -96 -7 -132 -7 -132 194 -257 194 -256 70 0 70 0
61 -72 c57 -68 72 -79 236 -171 164 -91 178 -97 231 -97 l57 0 37 -75 37 -75
93 0 93 0 0 -62 c0 -55 -4 -68 -40 -124 l-41 -62 89 -223 90 -224 77 -37 c42
-20 81 -38 85 -40 5 -2 -20 -169 -56 -373 -63 -366 -64 -372 -64 -556 l0 -186
103 -116 102 -116 37 42 c20 23 37 45 38 48 0 4 -18 29 -40 57 -22 27 -40 54
-40 59 0 5 22 31 50 58 44 43 50 54 50 91 0 23 -6 59 -14 81 l-14 40 106 114
c59 63 236 252 393 420 l286 306 13 114 13 114 48 57 c27 31 49 60 49 65 0 4
-77 59 -170 121 l-170 112 -64 0 c-74 0 -71 -4 -82 108 l-7 72 -98 0 -98 0 -6
48 c-3 26 -8 61 -11 79 l-5 31 -117 7 c-84 4 -135 12 -183 29 l-67 24 -91 -39
c-83 -36 -98 -39 -180 -39 l-90 0 -6 32 c-3 18 -9 53 -13 78 -7 45 -8 45 -56
52 -26 4 -49 8 -51 10 -2 2 3 33 10 70 13 72 13 74 -33 97 -20 11 -30 8 -73
-18 -71 -45 -95 -41 -156 22 l-51 52 52 92 51 93 145 0 145 0 35 -55 c34 -54
36 -55 82 -55 l46 0 -25 82 -25 82 39 36 c21 19 63 55 92 80 l54 46 -11 49
c-11 50 -11 50 26 88 34 36 40 38 79 33 l42 -5 3 71 3 71 222 126 c123 69 222
129 220 133 -1 3 -73 91 -159 196 l-156 189 -194 31 c-106 18 -197 32 -201 32
-4 0 -7 -44 -7 -97 0 -81 3 -100 19 -117 18 -21 18 -23 -13 -115 l-32 -94 -83
96 c-89 103 -72 93 -246 144 -24 7 -105 72 -105 84 0 5 28 48 62 95 l63 86 40
-6 c22 -3 80 -9 129 -12 85 -7 89 -6 82 12 -30 78 -31 103 -6 177 l25 72 58 3
c67 4 65 9 38 -121 -10 -48 -16 -89 -12 -91 3 -2 79 -16 168 -31 l163 -28 77
83 c94 100 99 108 82 125 -8 7 -131 108 -274 225 -143 116 -261 216 -263 220
-2 5 90 114 204 242 l208 233 -45 6 c-24 4 -134 10 -244 13 l-200 7 -607 -233z"/>
<path d="M7495 4814 c-123 -52 -134 -59 -211 -136 -123 -121 -121 -112 -31
-212 43 -46 77 -87 77 -90 0 -3 -54 -6 -120 -6 l-120 0 -180 -120 c-100 -66
-184 -120 -188 -120 -4 0 -34 27 -67 61 l-60 61 95 -7 95 -6 42 65 c42 64 42
66 20 71 -305 72 -449 105 -459 105 -7 0 -85 -16 -172 -37 l-159 -37 -146
-196 c-152 -204 -158 -216 -160 -326 l-1 -30 90 11 89 11 18 -49 c17 -46 19
-48 48 -43 18 4 56 14 86 24 l54 17 6 65 c5 63 4 66 -25 91 l-30 26 83 107 84
108 38 -38 c22 -21 36 -41 31 -44 -4 -4 -29 -24 -57 -45 -27 -22 -54 -42 -58
-46 -6 -5 32 -98 48 -117 1 -1 42 12 90 30 l88 32 23 -29 c13 -16 20 -33 16
-37 -4 -3 -65 -28 -137 -55 -128 -48 -130 -49 -139 -85 l-9 -37 -71 -5 c-200
-15 -185 -17 -213 26 -14 21 -28 38 -30 38 -4 0 -65 -30 -71 -35 -1 -1 7 -24
19 -51 l21 -49 -73 -67 c-56 -50 -83 -68 -113 -72 -26 -5 -60 -24 -103 -58
l-64 -51 35 -36 c41 -42 42 -47 19 -97 l-18 -36 -102 7 -103 7 36 -99 c20 -54
43 -117 51 -140 8 -24 18 -43 21 -43 4 0 70 59 146 130 77 72 144 130 148 130
5 0 18 -5 29 -11 17 -8 28 -4 67 29 l46 40 78 -59 c80 -61 82 -65 103 -166 4
-18 10 -33 13 -33 13 0 84 111 79 124 -3 7 -33 52 -68 100 -57 81 -61 89 -46
104 9 9 18 14 20 11 2 -2 35 -41 74 -86 94 -108 100 -118 108 -189 4 -33 10
-65 13 -71 10 -14 135 -103 139 -99 2 2 -1 43 -7 90 -7 48 -10 89 -8 92 3 2
36 -39 73 -91 38 -52 72 -95 75 -95 4 0 29 31 56 70 27 38 52 69 57 70 4 0 7
-33 7 -73 0 -67 -2 -75 -28 -100 l-29 -28 -139 7 c-139 7 -139 7 -181 40 l-41
34 -51 -46 -50 -45 -101 31 -101 31 2 33 c2 23 -5 43 -26 70 l-29 38 -86 -6
c-190 -15 -154 4 -410 -218 l-230 -199 0 -92 c0 -51 3 -141 7 -202 l6 -110 75
-65 c144 -126 113 -114 312 -120 l175 -5 87 -55 c49 -30 88 -58 88 -62 0 -4
-13 -15 -30 -25 -16 -9 -30 -22 -30 -28 1 -5 41 -57 90 -115 l90 -105 0 -77
c0 -42 -4 -79 -8 -82 -5 -3 -21 -23 -36 -45 l-27 -39 107 -294 c59 -161 108
-295 110 -296 1 -2 58 -7 125 -10 l122 -7 145 174 c80 96 151 186 158 200 8
14 14 46 15 71 1 62 6 71 70 123 l55 45 -9 93 c-7 79 -12 98 -33 120 l-24 26
113 164 c62 90 152 222 201 292 l88 128 -79 -6 c-43 -3 -92 -8 -108 -11 -25
-3 -44 6 -107 52 l-76 57 -92 189 c-84 174 -91 193 -88 241 l3 52 40 3 40 2
140 -270 c77 -148 142 -270 145 -270 3 0 64 22 135 49 l130 48 59 72 60 72
-59 59 -58 59 -50 -20 c-27 -11 -51 -18 -52 -17 -8 8 -95 153 -95 158 0 3 138
-19 306 -49 l306 -56 -5 -87 -4 -88 36 -10 c36 -9 36 -11 87 -152 59 -163 51
-157 167 -123 l57 16 0 78 0 79 83 62 c126 97 135 107 148 167 12 51 13 53 46
53 l33 0 0 -65 c0 -62 6 -78 105 -294 58 -125 105 -230 105 -234 0 -3 -31 -7
-69 -9 l-69 -3 184 -201 183 -202 114 -21 c157 -29 160 -29 152 12 -4 17 -9
35 -11 38 -2 3 -50 23 -106 43 -57 20 -108 40 -115 44 -7 4 -23 41 -35 82 -21
65 -27 75 -48 78 -57 6 -68 13 -79 44 -6 17 -9 33 -6 36 2 3 24 0 47 -6 40
-10 45 -9 70 15 l28 26 -78 53 -78 52 -17 76 c-21 96 -21 96 3 96 14 0 29 -19
55 -70 19 -38 39 -70 44 -70 16 0 181 102 181 112 0 5 -25 44 -55 87 l-54 78
221 128 221 128 -6 76 c-4 42 -9 123 -13 181 l-7 105 48 23 c26 13 51 20 55
15 4 -4 15 -37 25 -73 27 -97 23 -95 97 -45 37 24 69 49 72 54 3 5 -1 28 -9
51 -8 23 -15 46 -15 50 0 4 52 41 116 81 l115 74 16 59 c18 63 16 62 87 71
l48 7 -3 113 c-2 62 -7 116 -10 120 -4 3 -39 -1 -78 -10 -39 -9 -75 -15 -79
-13 -4 2 -2 24 5 50 14 47 14 47 138 111 l123 64 190 18 c105 9 195 16 202 13
6 -2 -14 -35 -44 -75 l-56 -71 21 -124 c12 -67 22 -124 23 -126 2 -1 51 60
109 137 l106 139 -6 65 -6 64 182 19 181 18 0 249 c0 195 -3 248 -12 244 -7
-2 -88 -13 -181 -23 l-167 -18 -68 33 c-64 32 -78 34 -277 52 -115 11 -215 21
-222 24 -7 2 -27 34 -45 70 l-33 65 -75 -75 c-60 -60 -80 -75 -105 -75 -47 0
-827 80 -857 88 -25 6 -16 14 112 87 104 59 135 82 122 87 -20 8 -343 79 -369
80 -10 1 -147 -47 -304 -107 l-287 -109 -25 -51 -25 -52 -158 39 c-86 21 -161
37 -165 36 -4 -2 -46 -36 -93 -76 l-85 -74 20 -40 c11 -22 19 -41 17 -43 -6
-4 -273 165 -273 173 0 5 29 41 65 80 65 72 65 72 190 116 69 24 125 48 125
52 0 18 -27 84 -33 84 -4 0 -65 -25 -137 -56z m-930 -1454 c24 -35 33 -40 66
-40 38 0 39 1 39 36 l0 36 43 -7 c23 -4 43 -8 43 -9 1 0 22 -34 48 -73 54 -86
67 -79 -129 -62 l-125 11 -52 -40 c-29 -22 -55 -39 -59 -36 -4 2 -10 22 -14
44 -6 38 -4 44 50 110 31 39 57 70 59 70 2 0 16 -18 31 -40z m658 -31 c8 -13
2 -27 -23 -63 l-34 -47 41 -84 42 -83 -50 -12 c-28 -7 -52 -11 -54 -9 -2 2 -7
64 -11 138 l-7 133 29 24 c32 26 52 27 67 3z"/>
<path d="M0 4204 c0 -134 3 -244 8 -244 12 0 197 43 201 47 3 2 -17 26 -44 53
l-49 49 40 17 c33 14 70 17 237 15 l198 -3 -33 50 -33 50 -262 105 -263 105 0
-244z"/>
<path d="M5060 4239 c-41 -11 -92 -24 -112 -30 l-38 -10 67 -99 c36 -55 69
-100 73 -100 6 0 117 77 197 136 l32 24 -53 50 c-29 28 -61 50 -72 49 -10 0
-53 -10 -94 -20z"/>
<path d="M5431 3846 l-44 -45 57 -62 c31 -34 56 -67 56 -73 0 -6 -11 -31 -25
-55 -14 -23 -25 -45 -25 -47 0 -2 40 -4 89 -4 l90 0 6 55 c7 53 6 56 -21 78
-65 50 -94 85 -116 139 l-24 58 -43 -44z"/>
<path d="M5281 3679 c-18 -33 -29 -64 -25 -67 5 -4 25 -22 45 -40 l36 -33 37
46 38 46 -42 54 c-23 30 -45 55 -49 55 -3 0 -21 -27 -40 -61z"/>
<path d="M10063 3429 c-46 -22 -83 -43 -83 -47 1 -4 11 -20 24 -35 l22 -28 85
37 c46 20 95 40 108 45 l24 10 -34 29 c-19 16 -41 29 -49 29 -8 -1 -52 -19
-97 -40z"/>
<path d="M9754 3223 c-20 -60 -41 -118 -45 -129 -5 -14 -55 -48 -138 -94 -72
-41 -131 -76 -131 -80 0 -3 16 -25 35 -47 l35 -41 132 68 133 68 83 132 c45
72 82 135 82 139 0 8 -130 91 -142 91 -3 0 -23 -48 -44 -107z"/>
<path d="M200 2856 c0 -2 16 -38 35 -80 l35 -76 65 42 c35 24 65 45 65 48 0 6
-178 70 -192 70 -5 0 -8 -2 -8 -4z"/>
<path d="M9777 2728 c19 -62 38 -116 42 -120 3 -4 24 8 46 26 l39 33 -53 81
c-29 44 -59 83 -68 86 -40 16 -41 7 -6 -106z"/>
<path d="M515 2663 c-8 -20 -14 -37 -13 -38 2 -1 66 -39 142 -85 l140 -82 62
30 61 30 89 -58 88 -59 23 40 c13 23 23 44 23 48 0 10 -146 141 -157 141 -5 0
-35 -14 -65 -30 l-56 -30 -109 44 c-59 24 -132 54 -160 65 l-53 21 -15 -37z"/>
<path d="M3177 2623 c-3 -4 -8 -26 -11 -49 l-7 -41 83 -17 c46 -10 90 -19 99
-22 11 -3 19 7 27 33 6 21 8 40 4 44 -4 3 -43 16 -87 29 -44 12 -85 25 -91 27
-7 2 -14 1 -17 -4z"/>
<path d="M3459 2503 c-5 -14 -6 -30 -2 -34 4 -4 77 -32 161 -62 144 -52 155
-55 185 -42 l32 14 -40 16 c-22 9 -102 44 -178 76 -76 32 -140 59 -142 59 -3
0 -10 -12 -16 -27z"/>
<path d="M8972 2047 l-83 -83 -8 -75 c-5 -41 -7 -75 -6 -77 2 -3 183 -52 191
-52 4 0 97 178 102 197 2 9 -77 132 -107 165 -4 4 -44 -30 -89 -75z"/>
<path d="M9247 1928 c-8 -18 -26 -62 -41 -97 -15 -35 -25 -65 -22 -68 2 -3 22
-7 43 -10 l38 -4 49 86 c26 47 46 88 45 90 -7 6 -81 35 -90 35 -5 0 -15 -15
-22 -32z"/>
<path d="M9495 1863 c2 -16 7 -57 10 -93 l6 -66 267 -56 c147 -30 268 -55 270
-53 3 3 -44 164 -51 171 -7 8 -467 124 -489 124 -13 0 -16 -6 -13 -27z"/>
<path d="M9240 1381 l-275 -178 -3 -111 -3 -110 46 -17 c25 -10 45 -22 45 -28
0 -6 -9 -44 -21 -85 -11 -40 -18 -76 -16 -79 3 -3 98 14 212 38 l206 43 6 28
c4 18 11 27 19 24 7 -3 84 -58 171 -122 168 -125 182 -132 303 -133 l45 -1
108 201 c60 111 106 206 104 213 -3 6 -75 118 -162 249 -114 174 -161 237
-172 233 -8 -3 -26 -6 -39 -6 -21 0 -24 -5 -25 -42 -1 -24 -4 -56 -8 -71 l-6
-28 -123 80 c-68 45 -126 81 -130 80 -4 0 -131 -80 -282 -178z"/>
<path d="M6975 1457 l-80 -63 -24 -83 c-15 -52 -20 -85 -14 -89 5 -4 42 -29
81 -56 40 -27 74 -47 76 -45 7 7 118 361 114 363 -29 22 -55 36 -63 36 -6 0
-46 -28 -90 -63z"/>
<path d="M1500 1325 c-25 -32 -39 -59 -34 -63 6 -4 31 -22 58 -40 l47 -34 45
23 c24 13 44 26 44 30 0 5 -75 96 -104 127 -10 11 -21 2 -56 -43z"/>
<path d="M10683 895 c-13 -19 -23 -37 -23 -40 0 -3 21 -37 46 -75 l47 -70 -79
-85 c-44 -48 -96 -106 -118 -131 l-38 -44 12 -65 12 -64 45 -7 c39 -6 48 -4
62 14 9 11 52 64 95 117 l79 97 -11 129 c-11 127 -12 130 -54 194 -24 35 -45
65 -48 65 -3 0 -15 -16 -27 -35z"/>
</g>
</svg>
